<?xml version="1.0" encoding="utf-8"?>
<!-- Generator: Adobe Illustrator 30.2.1, SVG Export Plug-In . SVG Version: 9.03 Build 0)  -->
<svg version="1.0" id="Calque_1" xmlns="http://www.w3.org/2000/svg" xmlns:xlink="http://www.w3.org/1999/xlink" x="0px" y="0px"
	 viewBox="0 0 2000 2000" style="enable-background:new 0 0 2000 2000;" xml:space="preserve">
<style type="text/css">
	.st0{fill:#FFFFFF;}
</style>
<g transform="translate(0.000000,2000.000000) scale(0.100000,-0.100000)">
	<path class="st0" d="M4855.54,17773.89c-36-14-44-34-60-146c-31-226-37-264-71-469c-95-574-208-894-391-1106
		c-97-113-188-182-340-258c-241-121-569-201-1191-290c-287-42-302-47-302-107c0-54,28-68,186-88c186-23,480-70,636-101
		c806-157,1105-394,1283-1017c64-222,109-458,170-882c19-137,41-256,47-264c31-37,96-34,117,6c6,11,19,88,31,172
		c123,925,251,1323,510,1580c254,254,632,375,1571,504c151,20,175,26,191,46c24,30,23,66-5,94c-18,18-42,25-127,35
		c-438,52-906,145-1144,228c-396,137-612,341-753,713c-94,245-164,574-238,1114c-27,197-33,219-65,236
		C4888.54,17785.89,4882.54,17785.89,4855.54,17773.89z M4890.54,17132.89c0-11,16-100,35-198c196-995,500-1294,1519-1495
		c71-15,141-26,155-26s32-4,40-9c9-6-11-13-60-21c-128-21-390-78-504-110c-405-113-673-284-839-534c-141-211-255-545-326-956
		c-32-183-33-185-50-70c-7,41-28,149-47,240c-118,554-274,851-558,1063c-88,66-275,160-407,206c-160,55-460,127-701,166
		c-42,7-41,25,2,25c38,0,311,54,455,91c633,160,932,420,1112,969c52,159,127,481,149,643
		C4871.54,17161.89,4890.54,17174.89,4890.54,17132.89z"/>
	<path class="st0" d="M12536.54,17568.89c-42-283-85-471-132-570c-83-177-214-274-453-335c-92-23-360-70-403-70c-53,0-28-17,35-24
		c117-13,332-56,427-86c241-74,359-187,432-415c20-64,73-317,83-400c10-86,16-117,21-112c3,2,13,63,24,134c83,556,196,715,578,813
		c81,20,266,54,365,65c58,7,79,25,30,25c-16,0-95,11-177,25c-564,94-699,231-786,800c-12,77-25,154-29,170
		C12543.54,17617.89,12543.54,17616.89,12536.54,17568.89z"/>
	<path class="st0" d="M9882.54,16356.89c-293-2182-549-3287-953-4103c-575-1163-1468-1744-3294-2145c-645-141-1684-310-2583-420
		c-28-4-52-10-52-13c0-4,96-20,213-35c272-36,819-115,1057-151c1787-276,2812-586,3525-1067c749-506,1202-1220,1541-2431
		c43-155,127-490,144-578c5-25,23-110,40-190c109-515,274-1539,376-2342c10-76,21-138,26-138c4,0,8,14,8,31c0,18,11,113,25,213
		s37,264,50,366c14,102,30,212,35,245s21,139,35,235c188,1274,393,2176,644,2825c79,207,98,250,181,420c347,711,801,1184,1490,1553
		c79,42,211,104,375,177c66,28,328,126,458,169c558,187,1381,365,2407,521c308,47,917,133,1108,156c56,7,99,16,95,20
		c-5,4-80,17-168,29c-88,11-191,25-230,30c-38,6-182,26-320,46c-1322,186-2198,365-2875,586c-1424,465-2150,1186-2620,2598
		c-203,613-385,1463-545,2550c-14,96-30,202-35,235c-10,60-44,312-75,545c-9,69-21,149-26,179s-9,72-9,93
		C9930.54,16660.89,9912.54,16583.89,9882.54,16356.89z"/>
	<path class="st0" d="M15112.54,15100.89c-18-20-27-53-47-193c-101-693-203-869-572-990c-102-33-323-77-525-105
		c-183-25-208-36-208-95c0-40,38-74,84-74c17,0,72-7,121-15c50-8,122-19,160-25c133-21,302-60,400-93c335-114,447-317,540-981
		c22-158,26-173,51-194c20-17,34-22,53-17c42,10,57,37,70,131c82,570,141,755,285,899c148,147,330,207,866,285c112,16,138,23,153,41
		c22,28,22,60-2,91c-17,21-34,26-118,37c-184,24-398,62-508,91c-247,65-376,144-463,284c-97,155-145,337-213,811
		c-10,69-18,95-36,112C15174.54,15129.89,15139.54,15129.89,15112.54,15100.89z M15185.54,14463.89c41-176,112-337,188-429
		c106-127,261-216,482-276c72-19,135-37,140-39c6-2-17-9-50-16c-257-54-463-161-570-297c-82-105-161-285-195-448c-17-78-26-87-35-33
		c-20,119-91,308-150,403c-113,181-285,291-568,361c-59,15-106,29-103,31c2,2,47,15,101,29c53,13,137,39,185,58
		c288,108,439,300,526,669c10,42,21,74,24,70C15164.54,14541.89,15175.54,14504.89,15185.54,14463.89z"/>
	<path class="st0" d="M7205.54,6586.89c-95-698-208-838-750-938c-77-14-166-28-198-32c-32-3-59-9-62-12c-2-4,65-17,148-30
		c453-69,625-161,731-392c42-91,89-278,116-463c11-77,22-142,25-144c5-5,5-2,39,211c46,291,104,444,205,550c121,127,275,183,671,246
		c63,10,108,20,100,23s-89,17-180,32c-418,66-578,151-685,364c-49,98-93,275-129,521c-8,57-17,106-20,108
		C7214.54,6633.89,7209.54,6613.89,7205.54,6586.89z"/>
	<path class="st0" d="M14806.54,6415.89c-30-222-83-492-118-601c-140-441-362-570-1161-676c-52-7-55-25-4-25c53,0,392-59,510-89
		c289-74,471-192,567-370c86-159,151-414,205-815c4-26,10-44,14-40c4,5,13,52,20,104s25,167,41,255c116,642,304,812,1020,925
		c41,6,97,16,123,21s66,9,87,9c56,0,50,17-7,25c-130,17-419,69-508,91c-423,106-594,293-694,757c-27,123-71,396-71,436
		C14830.54,6471.89,14813.54,6466.89,14806.54,6415.89z"/>
	<path class="st0" d="M3430.54,6235.89c-19-19-30-41-30-58c0-44-49-349-76-477c-44-204-105-353-185-448c-46-55-144-122-236-162
		c-117-52-413-116-674-147c-134-16-173-47-145-114c16-39,11-37,216-66c317-45,521-95,652-161c253-128,342-320,432-934
		c23-157,27-172,52-193c29-25,66-24,93,3c8,8,27,100,48,237c124,810,243,926,1077,1048c166,24,192,30,208,50c45,56,11,107-82,120
		c-612,90-787,145-936,294c-141,141-212,360-280,860c-19,136-29,161-76,172C3466.54,6264.89,3455.54,6259.89,3430.54,6235.89z
		 M3519.54,5544.89c111-404,305-575,764-675c38-9,26-22-26-29c-128-18-355-113-456-190c-127-98-225-266-286-491
		c-19-71-37-131-39-134c-3-2-8,9-11,24c-20,105-73,264-115,350c-75,150-186,262-335,337c-67,33-215,82-295,98c-36,7-69,16-73,19
		c-4,4,41,19,100,35c228,58,348,120,470,241c69,69,89,97,132,185c43,89,93,240,117,354c6,27,7,28,14,10
		C3484.54,5667.89,3502.54,5607.89,3519.54,5544.89z"/>
</g>
</svg>
